<svg xmlns="http://www.w3.org/2000/svg" viewBox="0 0 100 100">
  <defs>
    <linearGradient id="gradient" x1="0%" y1="0%" x2="100%" y2="100%">
      <stop offset="0%" style="stop-color:#2563eb;stop-opacity:1" />
      <stop offset="100%" style="stop-color:#0ea5e9;stop-opacity:1" />
    </linearGradient>
  </defs>

  <!-- Cloud shape -->
  <path fill="url(#gradient)" d="M 75 45 C 75 38 69 32 62 32 C 61 32 60 32 59 32 C 56 24 48 18 39 18 C 28 18 19 27 19 38 C 19 39 19 40 19 41 C 12 43 7 49 7 57 C 7 66 14 73 23 73 L 73 73 C 82 73 89 66 89 57 C 89 50 84 44 77 42 C 76 43 75 44 75 45 Z"/>

  <!-- K.I.S.S. text -->
  <text x="50" y="90" font-family="Arial, sans-serif" font-size="16" font-weight="bold" fill="#1e40af" text-anchor="middle">KISS</text>
</svg>
